<svg xmlns="http://www.w3.org/2000/svg" width="45" height="44.985" viewBox="0 0 45 44.985">
  <path id="featheralt" d="M23.4,18.01q-2.9-2.9-7.271-6.568T8.853,5.576L5.91,3.336a1.736,1.736,0,0,0-1.275-.527,1.736,1.736,0,0,0-1.275.527.649.649,0,0,0-.175.308.74.74,0,0,0,.023.4,1.306,1.306,0,0,0,.175.374,4.173,4.173,0,0,0,.329.4q.22.24.351.4a4.109,4.109,0,0,0,.374.374q.243.219.329.308,1.1.791,2.877,2.153t6.129,5.008q4.351,3.646,7.336,6.633,1.845,1.845,4.9,4.877t5.25,5.229q2.2,2.2,3.91,3.954,2.548,2.679,4.877,5.184t3.382,3.669l1.054,1.165a3.926,3.926,0,0,1,.527.572,3.926,3.926,0,0,1-.527.572q-.439.483-3.141-1.427a31.765,31.765,0,0,1-3.625-2.833q-2.636-2.679-7.117-7.2a33.95,33.95,0,0,1-7.71-3.339A92.335,92.335,0,0,1,14.3,24.714q-4-2.833-6.941-5.119T3.624,16.52a11.789,11.789,0,0,1-2.24-4.02A21.026,21.026,0,0,1,.044,6.744,6,6,0,0,1,1.165,2.237,8.1,8.1,0,0,1,6.964.018,12.486,12.486,0,0,1,13.73,1.666a42.593,42.593,0,0,1,7.556,5.778,78.383,78.383,0,0,1,7.732,8.216,49.412,49.412,0,0,1,5.711,8.632q2.2,4.305,1.757,6.853Q30.029,24.643,23.4,18.01Z" transform="translate(-0.008 -0.012)"/>
</svg>
