<svg xmlns="http://www.w3.org/2000/svg" width="91" height="55" viewBox="0 0 91 55">
  <g id="Group_164" data-name="Group 164" transform="translate(-830 -3136)">
    <path id="Polygon_4" data-name="Polygon 4" d="M18.774,2.946a2,2,0,0,1,3.452,0L39.237,31.989A2,2,0,0,1,37.511,35H3.489a2,2,0,0,1-1.726-3.011Z" transform="translate(830 3156)" fill="#0043a8"/>
    <path id="Polygon_5" data-name="Polygon 5" d="M18.264,3.039a2,2,0,0,1,3.473,0L38.29,32.008A2,2,0,0,1,36.554,35H3.446A2,2,0,0,1,1.71,32.008Z" transform="translate(881 3156)" fill="#0043a8"/>
    <ellipse id="Ellipse_34" data-name="Ellipse 34" cx="18" cy="18.5" rx="18" ry="18.5" transform="translate(857 3136)" fill="#e90505"/>
  </g>
</svg>
