<svg xmlns="http://www.w3.org/2000/svg" width="95" height="53" viewBox="0 0 95 53">
  <g id="Group_163" data-name="Group 163" transform="translate(-451 -3138)">
    <path id="Polygon_1" data-name="Polygon 1" d="M19.285,2.858a2,2,0,0,1,3.43,0L40.183,31.971A2,2,0,0,1,38.468,35H3.532a2,2,0,0,1-1.715-3.029Z" transform="translate(451 3156)" fill="#0043a8"/>
    <path id="Polygon_2" data-name="Polygon 2" d="M19.8,2.774a2,2,0,0,1,3.408,0L41.128,31.953A2,2,0,0,1,39.424,35H3.576a2,2,0,0,1-1.7-3.047Z" transform="translate(503 3156)" fill="#0043a8"/>
    <path id="Polygon_3" data-name="Polygon 3" d="M19.285,2.858a2,2,0,0,1,3.43,0L40.183,31.971A2,2,0,0,1,38.468,35H3.532a2,2,0,0,1-1.715-3.029Z" transform="translate(518 3173) rotate(180)" fill="#e90505"/>
  </g>
</svg>
