<svg xmlns="http://www.w3.org/2000/svg" xmlns:xlink="http://www.w3.org/1999/xlink" width="46" height="46" viewBox="0 0 46 46">
  <defs>
    <filter id="Ellipse_1" x="-9" y="-9" width="64" height="64" filterUnits="userSpaceOnUse">
      <feOffset input="SourceAlpha"/>
      <feGaussianBlur stdDeviation="3" result="blur"/>
      <feFlood flood-opacity="0.161"/>
      <feComposite operator="in" in2="blur"/>
      <feComposite in="SourceGraphic"/>
    </filter>
    <clipPath id="clip-path">
      <g transform="matrix(1, 0, 0, 1, 0, 0)" filter="url(#Ellipse_1)">
        <circle id="Ellipse_1-2" data-name="Ellipse 1" cx="23" cy="23" r="23" transform="translate(308 1471)" fill="#fff"/>
      </g>
    </clipPath>
  </defs>
  <g id="Mask_Group_15" data-name="Mask Group 15" transform="translate(-308 -1471)" clip-path="url(#clip-path)">
    <path id="bx-world" d="M31.28,8.5a22.78,22.78,0,1,0,22.78,22.78A22.806,22.806,0,0,0,31.28,8.5ZM13.056,31.28a18.117,18.117,0,0,1,.981-5.852L17.612,29l4.556,4.556v4.556l4.556,4.556L29,44.949v4.4A18.244,18.244,0,0,1,13.056,31.28ZM45.7,42.381a9.525,9.525,0,0,0-5.308-1.988V38.115a4.556,4.556,0,0,0-4.556-4.556H26.724V26.724a4.556,4.556,0,0,0,4.556-4.556V19.89h2.278a4.556,4.556,0,0,0,4.556-4.556V14.4A18.169,18.169,0,0,1,45.7,42.378Z" transform="translate(299.5 1462.5)"/>
  </g>
</svg>
