<svg xmlns="http://www.w3.org/2000/svg" width="53.265" height="50" viewBox="0 0 53.265 50">
  <path id="Path_1268" data-name="Path 1268" d="M50.41,3H22.919v8.591h6.873v3.436H7.455A5.063,5.063,0,0,0,2.3,20.182v18.9a5.063,5.063,0,0,0,5.155,5.155H9.173V53L20,44.237H31.51V32.21h18.9a5.063,5.063,0,0,0,5.155-5.155V8.155A5.063,5.063,0,0,0,50.41,3ZM20.857,37.192,20,34.443H14.671L13.64,37.192H9.516L15.187,21.9H19.31l5.67,15.292ZM46.974,23.619v3.436a15.513,15.513,0,0,1-6.7-1.718A18.416,18.416,0,0,1,33.4,27.055l-.172-3.436a13.08,13.08,0,0,0,3.608-.515,11.738,11.738,0,0,1-3.093-5.5h3.608a8.638,8.638,0,0,0,2.749,3.78,8.888,8.888,0,0,0,3.265-6.357H33.056V11.591h5.155V8.155h3.436v3.436h5.67l.172,1.718a13.063,13.063,0,0,1-3.78,9.794A11.675,11.675,0,0,0,46.974,23.619Z" transform="translate(-2.3 -3)"/>
</svg>
