<svg id="person-bounding-box" xmlns="http://www.w3.org/2000/svg" width="49.768" height="49.768" viewBox="0 0 49.768 49.768">
  <path id="Path_1269" data-name="Path 1269" d="M4.666,3.111A1.555,1.555,0,0,0,3.111,4.666V14A1.555,1.555,0,0,1,0,14V4.666A4.666,4.666,0,0,1,4.666,0H14a1.555,1.555,0,0,1,0,3.111Zm29.55-1.555A1.555,1.555,0,0,1,35.771,0H45.1a4.666,4.666,0,0,1,4.666,4.666V14a1.555,1.555,0,0,1-3.111,0V4.666A1.555,1.555,0,0,0,45.1,3.111H35.771A1.555,1.555,0,0,1,34.216,1.555ZM1.555,34.216a1.555,1.555,0,0,1,1.555,1.555V45.1a1.555,1.555,0,0,0,1.555,1.555H14a1.555,1.555,0,0,1,0,3.111H4.666A4.666,4.666,0,0,1,0,45.1V35.771a1.555,1.555,0,0,1,1.555-1.555Zm46.658,0a1.555,1.555,0,0,1,1.555,1.555V45.1A4.666,4.666,0,0,1,45.1,49.768H35.771a1.555,1.555,0,1,1,0-3.111H45.1A1.555,1.555,0,0,0,46.658,45.1V35.771A1.555,1.555,0,0,1,48.213,34.216Z" fill-rule="evenodd"/>
  <path id="Path_1270" data-name="Path 1270" d="M7.611,41.826A3.046,3.046,0,0,1,4.5,38.716c0-3.111,3.111-12.442,18.663-12.442s18.663,9.332,18.663,12.442a3.046,3.046,0,0,1-3.111,3.111ZM23.163,23.163a9.332,9.332,0,1,0-9.332-9.332A9.332,9.332,0,0,0,23.163,23.163Z" transform="translate(1.721 1.5)" fill-rule="evenodd"/>
</svg>
